<svg xmlns="http://www.w3.org/2000/svg" width="26.038" height="26.089" viewBox="0 0 26.038 26.089">
  <path id="contact" d="M5.257,26.019A6.552,6.552,0,0,0,11.08,30.01c.319,0,5.282.263,12.416-6.5,5.742-5.446,6.443-11.3,6.5-12.416.059-1.084-.251-3.8-3.991-5.823-.463-.25-1.382-.361-1.62-.124-.105.105-3.245,5.271-3.327,5.443a1.155,1.155,0,0,0-.124.5,1.469,1.469,0,0,0,.5.885,8.6,8.6,0,0,0,1.1.973,10.684,10.684,0,0,1,1.1.938,1.348,1.348,0,0,1,.5.814c-.023.551-.474,2.525-3.914,5.547a26.468,26.468,0,0,1-5.256,3.934,1.2,1.2,0,0,1-.4.088,1.347,1.347,0,0,1-.814-.5c-.33-.336-1.441-1.859-1.795-2.2a1.47,1.47,0,0,0-.885-.5,1.153,1.153,0,0,0-.5.124C10.4,21.271,5.232,24.3,5.133,24.4c-.268.275-.079,1.134.124,1.62" transform="translate(-4.471 -4.422)" fill="none" stroke="#00ff9b" stroke-width="1"/>
</svg>
