<svg xmlns="http://www.w3.org/2000/svg" width="20.765" height="28" viewBox="0 0 20.765 28">
  <g id="here_pin" data-name="here pin" transform="translate(0 78.43)">
    <path id="Path_5238" data-name="Path 5238" d="M-18.725-42.26h-.028a.842.842,0,0,1-.607-.287l-3.4-3.484h-4.291A2.075,2.075,0,0,1-29.121-48.1V-63.651a2.075,2.075,0,0,1,2.073-2.073h16.619a2.075,2.075,0,0,1,2.073,2.073V-48.1a2.075,2.075,0,0,1-2.073,2.072H-14.72l-3.4,3.483a.841.841,0,0,1-.608.288m-8.324-22.393a1,1,0,0,0-1,1V-48.1a1,1,0,0,0,1,1h4.742l3.567,3.658,3.568-3.658h4.742a1,1,0,0,0,1-1V-63.651a1,1,0,0,0-1-1Z" transform="translate(29.121 -12.706)" fill="#00ff9b"/>
    <path id="Path_5239" data-name="Path 5239" d="M-5.4-.055A6.414,6.414,0,0,0-7.5,1.041a2.208,2.208,0,0,0-.887,1.651A2.151,2.151,0,0,0-7.6,4.259,5.741,5.741,0,0,0-5.79,5.3a16.054,16.054,0,0,0,5.58.891A16.053,16.053,0,0,0,5.37,5.3,5.737,5.737,0,0,0,7.182,4.259a2.149,2.149,0,0,0,.789-1.567,2.208,2.208,0,0,0-.887-1.651,6.41,6.41,0,0,0-2.108-1.1A.587.587,0,0,0,4.6,1.058a5.42,5.42,0,0,1,1.724.879,1.046,1.046,0,0,1,.47.754.973.973,0,0,1-.4.7A4.735,4.735,0,0,1,4.95,4.2a15.075,15.075,0,0,1-5.16.813A15.072,15.072,0,0,1-5.37,4.2a4.726,4.726,0,0,1-1.443-.811.972.972,0,0,1-.4-.7,1.048,1.048,0,0,1,.47-.754,5.423,5.423,0,0,1,1.724-.879.587.587,0,0,0,.37-.743A.614.614,0,0,0-5.4-.055" transform="translate(10.684 -56.618)" fill="#00ff9b"/>
  </g>
</svg>
