<svg xmlns="http://www.w3.org/2000/svg" width="86.449" height="88.584" viewBox="0 0 86.449 88.584">
  <g id="medical_icon" data-name="medical icon" transform="translate(-3.7 -2.9)">
    <path id="Path_8" data-name="Path 8" d="M49.166,56.829V46.766H59.229a2.733,2.733,0,0,0,2.744-2.744V30.452a2.733,2.733,0,0,0-2.744-2.744H49.166V17.644A2.733,2.733,0,0,0,46.421,14.9H32.852a2.733,2.733,0,0,0-2.744,2.744V27.707H20.044A2.733,2.733,0,0,0,17.3,30.452v13.57a2.733,2.733,0,0,0,2.744,2.744H30.107V56.829a2.733,2.733,0,0,0,2.744,2.744h13.57A2.733,2.733,0,0,0,49.166,56.829Zm-3.049-.3H33.309V46.461a2.733,2.733,0,0,0-2.744-2.744H20.5V30.909H30.565a2.733,2.733,0,0,0,2.744-2.744V18.1H46.116V28.165a2.733,2.733,0,0,0,2.744,2.744H58.924V43.716H48.861a2.733,2.733,0,0,0-2.744,2.744Z" transform="translate(7.136 6.296)" fill="#3c19c8"/>
    <path id="Path_9" data-name="Path 9" d="M88.929,17.537c-5.336-1.525-8.843-5.946-10.673-13.417A1.642,1.642,0,0,0,76.732,2.9H16.965A1.485,1.485,0,0,0,15.44,4.12C13.61,11.591,10.1,16.012,4.767,17.537A1.515,1.515,0,0,0,3.7,19.062C4,55.5,18.489,79.9,46.391,91.331c0,.152.3.152.457.152a.917.917,0,0,0,.61-.152c27.9-11.588,42.234-35.83,42.691-72.27A1.485,1.485,0,0,0,88.929,17.537ZM46.848,88.282C20.776,77.3,7.359,54.434,6.6,20.129,12.086,18.147,16.05,13.42,18.032,6.1h57.48c1.982,7.318,5.794,12.045,11.435,14.027C86.338,54.434,72.92,77.3,46.848,88.282Z" transform="translate(0 0)" fill="#3c19c8"/>
  </g>
</svg>
